<svg xmlns="http://www.w3.org/2000/svg" width="120" height="185" viewBox="0 0 120 185">
    <g fill="none" fill-rule="evenodd">
        <path fill="#7D7D7D" fill-rule="nonzero" d="M117.45 75.622L2.55 142.039 0 143.54v6.622l3.255 1.877 2.55 1.502 6.465 3.709 2.55 1.502 6.465 3.724 2.55 1.501 6.465 3.724 2.565 1.502 6.465 3.709 2.55 1.502 6.465 3.724 2.55 1.501 6.465 3.56 2.55 1.5H60l60-34.537V74.15l-2.55 1.472zm0 72.828l-57.54 33.246-6.465-3.724 64.005-36.985v7.463zm0-10.406l-66.555 38.472-6.465-3.724 73.02-42.15v7.402zm0-10.406L41.88 171.32l-6.465-3.724 82.035-47.466v7.508zm0-10.406l-84.585 48.893-6.465-3.71 91.05-52.556v7.373zm0-10.391l-93.615 54.058-6.465-3.724 100.08-57.798v7.464zm0-10.407L14.82 155.748l-6.465-3.724L117.45 88.956v7.478zm0-10.406L5.805 150.598 2.55 148.66v-3.68l114.9-66.416v7.463z"/>
        <path fill="#4912FF" d="M22.215 37.03L0 49.869v3.003l18.915-10.977c1.02-1.667 2.085-3.288 3.3-4.865z"/>
        <path fill="#5B29FF" d="M13.89 52.256L0 60.276v3.002l12.675-7.328c.375-1.276.825-2.492 1.215-3.694z"/>
        <path fill="#784FFF" d="M10.755 64.465L0 70.68v3.004l10.38-6.007c.12-1.111.225-2.162.375-3.213zM10.125 75.231L0 81.088v3.003l10.29-6.007a59.46 59.46 0 0 1-.165-2.853z"/>
        <path fill="#9E81FF" d="M13.77 93.927L0 101.9v3.003l14.715-8.514c-.33-.856-.645-1.652-.945-2.462z"/>
        <path fill="#00D8FF" d="M22.905 102.005l2.205-1.276c-.225-.36-.465-.706-.675-1.081l-.615-1.126A54.73 54.73 0 0 1 21 92.665a66.514 66.514 0 0 1-.9-2.417 54 54 0 0 1-1.74-6.457 52.372 52.372 0 0 1-.48-2.673A53.77 53.77 0 0 1 17.31 74v-3.003a53.693 53.693 0 0 1 1.08-7.929c.225-1.141.48-2.282.78-3.409a52.487 52.487 0 0 1 3.54-9.49c.705-1.501 1.5-2.913 2.34-4.31a52.317 52.317 0 0 1 18.675-18.304 52.337 52.337 0 0 1 25.05-7.013h1.215c1.245 0 2.475 0 3.705.135 3.38.243 6.73.806 10.005 1.682 1.125.3 2.235.646 3.345 1.021 2.562.84 5.055 1.88 7.455 3.109.89.46 1.76.96 2.61 1.501.57.346 1.14.676 1.695 1.036.855-.48 1.725-.93 2.61-1.336l-1.785-1.156a69.703 69.703 0 0 0-2.52-1.502A52.97 52.97 0 0 0 90 21.653c-1.05-.405-2.1-.78-3.165-1.126a54.594 54.594 0 0 0-9.315-2.072c-1.5-.195-2.895-.345-4.365-.42a54.822 54.822 0 0 0-30.615 7.282 54.934 54.934 0 0 0-21.78 22.96 58.006 58.006 0 0 0-4.05 10.662c-.225.81-.405 1.621-.585 2.432a49.307 49.307 0 0 0-.63 3.304 55.528 55.528 0 0 0-.69 7.853v3.004c.087 2.356.333 4.704.735 7.027.15.886.315 1.772.51 2.658A54.312 54.312 0 0 0 18 91.6a56.038 56.038 0 0 0 3.69 8.259l-4.17 2.252L0 112.291v3.004l18.795-10.872 4.11-2.418z"/>
        <path fill="#9E81FF" d="M11.25 84.992L0 91.494v3.003l11.835-6.832a120.28 120.28 0 0 1-.585-2.673z"/>
        <path fill="#5B29FF" d="M83.805 14.791L109.395 0h-5.1L80.04 14.025c1.26.21 2.46.48 3.765.766z"/>
        <path fill="#4912FF" d="M68.55 13.2L91.395 0h-5.1L62.7 13.635c1.95-.24 3.9-.39 5.85-.436z"/>
        <path fill="#00D8FF" d="M95.19 78.084l-4.215 2.448-46.35 26.774-4.125 2.388a10.139 10.139 0 0 0-6.195-3.875 10.264 10.264 0 0 0-5.415.376c-.587.21-1.154.472-1.695.78l-.615.361a10.102 10.102 0 0 0-3.225 3.544 10.266 10.266 0 0 0-.48 8.965l-4.11 2.372L0 133.104v3.003l20.04-11.577 4.11-2.373 2.235-1.291a7.328 7.328 0 0 1-.735-1.051 6.88 6.88 0 0 1-.54-1.172 7.768 7.768 0 0 1 3.12-9.22c.09 0 .15-.12.24-.165a7.495 7.495 0 0 1 2.235-.856 8.497 8.497 0 0 1 1.62-.285 7.737 7.737 0 0 1 6 2.808c.275.332.526.683.75 1.051.203.377.378.769.525 1.171l2.235-1.291 4.11-2.388 46.92-27.089 4.335-2.508 2.385-1.381L120 66.702V63.7L97.5 76.763l-2.31 1.321zM17.745 112.442L0 122.698v3.003l17.355-10.076c.016-1.072.147-2.14.39-3.183z"/>
        <path fill="#00D8FF" d="M112.14 29.627h-.735a27.92 27.92 0 0 0-5.64 1.291c-.923.319-1.83.685-2.715 1.097-.795.375-1.5.765-2.325 1.2a27.76 27.76 0 0 0-8.82 8.05 28.456 28.456 0 0 0-4.5 10.076 29.822 29.822 0 0 0-.555 3.273 28.246 28.246 0 0 0 .15 7.433c.135.886.315 1.772.525 2.643a27.874 27.874 0 0 0 2.34 6.112l-4.095 2.357-49.125 28.366c1.045.298 2.051.716 3 1.246L87 75.381l4.095-2.372 2.205-1.276c-.24-.36-.48-.706-.69-1.067-.21-.36-.39-.765-.585-1.14a25.8 25.8 0 0 1-2.25-6.157 24.05 24.05 0 0 1-.435-2.703 25.886 25.886 0 0 1 .285-7.614c.223-1.184.524-2.353.9-3.498A25.687 25.687 0 0 1 102 35.484a27.797 27.797 0 0 1 3.225-1.577 25.915 25.915 0 0 1 2.775-.871 25.475 25.475 0 0 1 5.775-.901h1.065c1.728.002 3.452.178 5.145.525v-2.628a27.69 27.69 0 0 0-7.845-.405z"/>
        <path fill="#784FFF" d="M92.16 17.419c.99.39 1.965.81 3 1.246L120 4.28V1.276L92.16 17.42zM104.19 23.816L120 14.67v-3.003l-18.21 10.511c.81.57 1.605 1.096 2.4 1.637z"/>
        <path fill="#1E0080" d="M14.295 0L0 8.259v2.943L19.395 0z"/>
        <path fill="#2900B0" d="M32.295 0L0 18.665v2.943L37.395 0zM50.295 0L0 29.071v2.944L55.395 0z"/>
        <path fill="#3A00F9" d="M68.295 0L0 39.478v2.943L73.395 0z"/>
    </g>
</svg>
