<svg xmlns="http://www.w3.org/2000/svg" width="80" height="40" viewBox="0 0 80 40">
    <g fill="none" fill-rule="evenodd">
        <g>
            <g>
                <g>
                    <g fill-rule="nonzero">
                        <g>
                            <path fill="#00A4E4" d="M26.445 5.48c4.332.45 8.729.68 13.18.68v2.144c-4.527 0-8.999-.235-13.405-.692l.225-2.132z" transform="translate(-59 -60) translate(20 20) translate(39 40) translate(0 31.333)"/>
                            <path fill="#4FB748" d="M13.41 3.416c4.261.9 8.61 1.59 13.037 2.054l-.224 2.131c-4.502-.473-8.925-1.173-13.259-2.09l.446-2.095z" transform="translate(-59 -60) translate(20 20) translate(39 40) translate(0 31.333)"/>
                            <path fill="#014DA1" d="M.663 0c4.143 1.34 8.396 2.48 12.75 3.406l-.446 2.096C8.54 4.561 4.214 3.402 0 2.038L.663 0z" transform="translate(-59 -60) translate(20 20) translate(39 40) translate(0 31.333)"/>
                        </g>
                        <g>
                            <path fill="#7C51A0" d="M26.82 5.48c4.332.45 8.73.68 13.18.68v2.144c-4.527 0-8.999-.235-13.404-.692l.224-2.132z" transform="translate(-59 -60) translate(20 20) translate(39 40) translate(0 31.333) matrix(-1 0 0 1 79.625 0)"/>
                            <path fill="#F69332" d="M13.786 3.416c4.26.9 8.61 1.59 13.036 2.054l-.224 2.131c-4.502-.473-8.925-1.173-13.258-2.09l.446-2.095z" transform="translate(-59 -60) translate(20 20) translate(39 40) translate(0 31.333) matrix(-1 0 0 1 79.625 0)"/>
                            <path fill="#FF0004" d="M1.038 0c4.144 1.34 8.397 2.48 12.75 3.406l-.445 2.096C8.915 4.561 4.59 3.402.375 2.038L1.038 0z" transform="translate(-59 -60) translate(20 20) translate(39 40) translate(0 31.333) matrix(-1 0 0 1 79.625 0)"/>
                        </g>
                    </g>
                    <g fill="#FFF">
                        <path d="M77.021 15.129v8.353H63.822V15.13h13.2zm-39.516-.706v8.354h-13.2v-8.354h13.2zm18.894-12.54v9.976h3.316v1.952h-8.41v8.966H48.88V13.81H40.47V11.86h13.505v-8H42.939V1.883H56.4zM5.859 16.659v3.953H16.8v1.929H3.481v-5.882H5.86zm68.786.4h-8.447v4.493h8.447v-4.494zm-39.517-.706h-8.446v4.494h8.446v-4.494zm-18.8-15.106v6.635h3.178v2h-3.177v7.482h-2.33V1.247h2.33zM6.024 6.4c.675 0 1.313.11 1.918.33.603.219 1.125.521 1.564.905.44.385.789.848 1.048 1.389.258.54.388 1.14.388 1.8 0 .659-.13 1.258-.388 1.8-.26.54-.609 1.003-1.048 1.388-.439.385-.961.686-1.564.906-.605.22-1.243.33-1.918.33-.69 0-1.332-.11-1.929-.33-.596-.22-1.113-.521-1.552-.906-.44-.385-.788-.847-1.048-1.389-.26-.54-.388-1.14-.388-1.8 0-.659.129-1.258.388-1.8.26-.54.608-1.003 1.048-1.388.439-.384.956-.686 1.552-.906.597-.22 1.238-.329 1.929-.329zM79.95 11.86v1.882H60.704v-1.882H79.95zM6.023 8.282c-.72 0-1.332.234-1.835.701-.503.467-.753 1.08-.753 1.84s.25 1.375.753 1.842c.503.466 1.115.7 1.835.7.722 0 1.334-.234 1.835-.7.502-.467.753-1.081.753-1.841s-.251-1.374-.753-1.84c-.501-.468-1.113-.702-1.835-.702zm31.482-7.035v11.53h-2.33V8H30.68v4.447H28.33V8.73h-7.13V6.8h7.13V4.164h-7.012V2.236h9.364V6h4.494V1.247h2.33zm39.269.635v5.176H66.069v1.554h11.082v1.835H63.693v-5.2h10.705v-1.53H63.693V1.882h13.08zM11.81 3.742v1.881H0V3.741h11.81zM6.023 0c.408 0 .753.141 1.036.424.28.282.423.628.423 1.035 0 .408-.143.753-.423 1.036-.283.282-.628.423-1.036.423-.407 0-.752-.141-1.035-.423-.282-.283-.424-.628-.424-1.036 0-.407.142-.753.424-1.035C5.271.14 5.616 0 6.023 0z" transform="translate(-59 -60) translate(20 20) translate(39 40)"/>
                    </g>
                </g>
            </g>
        </g>
    </g>
</svg>
