<svg xmlns="http://www.w3.org/2000/svg" width="72" height="36" viewBox="0 0 72 36">
    <g fill="none" fill-rule="evenodd">
        <g fill-rule="nonzero">
            <g>
                <path fill="#00A4E4" d="M23.8 4.932c3.9.405 7.856.613 11.862.613v1.928c-4.074 0-8.099-.21-12.064-.623l.202-1.918z" transform="translate(0 28.2)"/>
                <path fill="#4FB748" d="M12.07 3.074c3.834.81 7.748 1.43 11.732 1.85L23.6 6.84c-4.051-.426-8.032-1.056-11.932-1.88l.401-1.887z" transform="translate(0 28.2)"/>
                <path fill="#014DA1" d="M.596 0c3.73 1.207 7.557 2.233 11.476 3.065l-.401 1.887C7.686 4.105 3.793 3.062 0 1.834L.596 0z" transform="translate(0 28.2)"/>
            </g>
            <g>
                <path fill="#7C51A0" d="M24.138 4.932c3.899.405 7.856.613 11.862.613v1.928c-4.074 0-8.099-.21-12.064-.623l.202-1.918z" transform="translate(0 28.2) matrix(-1 0 0 1 71.662 0)"/>
                <path fill="#F69332" d="M12.407 3.074c3.835.81 7.749 1.43 11.733 1.85l-.202 1.917c-4.052-.426-8.032-1.056-11.932-1.88l.401-1.887z" transform="translate(0 28.2) matrix(-1 0 0 1 71.662 0)"/>
                <path fill="#FF0004" d="M.934 0c3.73 1.207 7.557 2.233 11.475 3.065l-.4 1.887C8.022 4.105 4.13 3.062.337 1.834L.934 0z" transform="translate(0 28.2) matrix(-1 0 0 1 71.662 0)"/>
            </g>
        </g>
        <path fill="#FFF" d="M69.32 13.616v7.518H57.44v-7.518h11.88zm-35.566-.635v7.518H21.875v-7.518h11.88zM50.76 1.694v8.979h2.985v1.757h-7.57v8.07h-2.18l-.001-8.07h-7.57v-1.757h12.154v-7.2h-9.932V1.694H50.76zM5.274 14.993v3.557h9.845v1.737H3.134v-5.294h2.14zm61.907.36h-7.602v4.044h7.602v-4.045zm-35.566-.636h-7.601v4.045h7.601v-4.045zM14.696 1.122v5.972h2.859v1.8h-2.859v6.734h-2.097V1.122h2.097zM5.42 5.76c.608 0 1.183.099 1.727.296.543.198 1.013.47 1.408.816s.71.762.943 1.25c.232.486.35 1.026.35 1.62 0 .592-.118 1.132-.35 1.62-.234.486-.548.903-.943 1.248-.395.347-.865.618-1.408.816-.544.198-1.12.297-1.727.297-.62 0-1.198-.1-1.735-.297-.537-.198-1.002-.469-1.398-.816-.395-.345-.709-.762-.942-1.249-.234-.487-.35-1.027-.35-1.62 0-.593.116-1.133.35-1.62.233-.487.547-.903.942-1.25.396-.345.861-.617 1.398-.815.537-.197 1.114-.296 1.735-.296zm66.535 4.913v1.694H54.633v-1.694h17.322zM5.42 7.454c-.648 0-1.198.21-1.651.631-.452.42-.677.972-.677 1.656 0 .684.225 1.237.677 1.657.453.42 1.003.63 1.651.63.65 0 1.201-.21 1.652-.63.452-.42.678-.973.678-1.657s-.226-1.236-.678-1.656c-.45-.42-1.002-.63-1.652-.63zm28.334-6.332V11.5h-2.097V7.2h-4.044v4.002h-2.117V7.857h-6.417V6.12h6.417V3.748h-6.311V2.012h8.428V5.4h4.044V1.122h2.097zm35.342.572v4.659h-9.633V7.75h9.973V9.4H57.323V4.723h9.635V3.346h-9.635V1.694h11.773zM10.63 3.367v1.694H0V3.367h10.63zM5.42 0c.368 0 .678.127.933.381.252.254.381.565.381.932 0 .367-.129.678-.38.932-.256.254-.566.38-.934.38-.365 0-.676-.126-.93-.38-.255-.254-.382-.565-.382-.932 0-.367.127-.678.382-.932C4.744.127 5.055 0 5.42 0z"/>
    </g>
</svg>
