<svg xmlns="http://www.w3.org/2000/svg" width="72" height="35" viewBox="0 0 72 35">
    <g fill="none" fill-rule="evenodd">
        <path fill="#FFF" d="M68.742 13.503v7.455h-11.78v-7.455h11.78zm-35.269-.63v7.455h-11.78v-7.455h11.78zM50.336 1.68v8.904h2.96v1.743h-7.507v8.001h-2.162v-8.002h-7.508v-1.742h12.053v-7.14h-9.849V1.68h12.013zM5.23 14.868v3.528h9.763v1.722H3.108v-5.25H5.23zm61.391.356h-7.539v4.011h7.54v-4.01zm-35.27-.63h-7.537v4.012h7.538v-4.011zM14.575 1.115v5.92h2.835V8.82h-2.835v6.677h-2.08V1.113h2.08zM5.375 5.711c.603 0 1.173.098 1.713.294.538.196 1.004.466 1.395.809.392.343.704.756.936 1.239.23.483.346 1.018.346 1.606 0 .588-.116 1.123-.346 1.606-.232.483-.544.896-.936 1.24-.391.343-.857.612-1.395.808-.54.196-1.11.294-1.713.294-.616 0-1.188-.098-1.721-.294-.532-.196-.994-.465-1.386-.809-.392-.343-.703-.756-.934-1.239-.232-.483-.347-1.018-.347-1.606 0-.588.115-1.123.347-1.606.231-.483.542-.896.934-1.24.392-.342.854-.612 1.386-.808.533-.196 1.105-.294 1.721-.294zm65.98 4.872v1.68H54.179v-1.68h17.178zM5.376 7.392c-.642 0-1.188.209-1.637.626-.449.416-.672.963-.672 1.642 0 .679.223 1.227.672 1.643.449.416.995.625 1.637.625.645 0 1.19-.209 1.639-.625.447-.416.671-.964.671-1.643s-.224-1.226-.671-1.642c-.448-.417-.994-.626-1.639-.626zm28.098-6.279v10.29h-2.08V7.14h-4.01v3.969h-2.1V7.79H18.92V6.07h6.364V3.717h-6.259V1.995h8.358v3.36h4.01V1.113h2.08zm35.048.567V6.3h-9.554v1.386h9.89v1.638H56.846V4.683H66.4V3.318h-9.554V1.68H68.52zM10.54 3.339v1.68H0v-1.68h10.54zM5.375-.001c.365 0 .673.127.925.38.25.251.378.56.378.923 0 .364-.128.672-.378.924-.252.252-.56.378-.925.378-.363 0-.67-.126-.923-.378-.252-.252-.378-.56-.378-.924 0-.363.126-.672.378-.924S5.012 0 5.375 0z"/>
        <g>
            <path fill="#014DA1" d="M0 0H12V1.2H0z" transform="translate(0 33)"/>
            <path fill="#4FB748" d="M12 0H24V1.2H12z" transform="translate(0 33)"/>
            <path fill="#00A4E4" d="M24 0H36V1.2H24z" transform="translate(0 33)"/>
            <path fill="#7C51A0" d="M36 0H48V1.2H36z" transform="translate(0 33)"/>
            <path fill="#F69332" d="M48 0H60V1.2H48z" transform="translate(0 33)"/>
            <path fill="#EC1B23" d="M60 0H72V1.2H60z" transform="translate(0 33)"/>
        </g>
    </g>
</svg>
