<svg xmlns="http://www.w3.org/2000/svg" width="100" height="114" viewBox="0 0 100 114">
    <g fill="none" fill-rule="evenodd">
        <g fill="#FFF">
            <g>
                <g>
                    <path d="M100 53.025v2.5l-17.013 9.813L81 66.488l-3.612 2.087-39.1 22.55-3.425 1.987L33 94.188c-.122-.335-.269-.661-.438-.975-.186-.307-.395-.6-.624-.875-1.233-1.49-3.068-2.347-5-2.338-.457.035-.91.115-1.35.237-.655.137-1.284.377-1.863.713l-.052.037c-.05.044-.092.1-.148.1-2.562 1.63-3.644 4.824-2.6 7.675.12.339.27.665.45.975.178.31.383.602.613.876l-1.863 1.075-3.425 1.974L0 113.3v-2.5l15.637-9.063 3.425-1.974c-.816-1.935-.892-4.102-.212-6.088.16-.477.365-.937.612-1.375.647-1.185 1.569-2.196 2.688-2.95l.513-.3.342-.185c.346-.178.703-.333 1.07-.465 1.449-.507 3.008-.615 4.512-.313 2.062.397 3.903 1.546 5.163 3.225l3.438-1.987 38.624-22.288L79.326 65l1.925-1.1L100 53.025zM14.787 93.6c-.202.87-.311 1.758-.325 2.65L0 104.638v-2.5zm21.217-72.84c7.598-4.252 16.257-6.249 24.959-5.748 1.224.063 2.387.188 3.637.35 2.633.348 5.23.925 7.763 1.725.887.288 1.762.6 2.637.938 2.042.79 4.022 1.73 5.925 2.813.713.4 1.413.825 2.1 1.25l1.487.962c-.737.337-1.462.712-2.174 1.113-.463-.3-.938-.576-1.413-.863-.708-.45-1.433-.867-2.175-1.25-2-1.023-4.077-1.888-6.213-2.588-.925-.312-1.85-.6-2.787-.85-2.729-.729-5.52-1.197-8.337-1.4-1.025-.112-2.05-.112-3.088-.112h-1.013c-7.338.16-14.518 2.167-20.874 5.837l-.579.34c-6.138 3.66-11.286 8.775-14.984 14.898-.7 1.163-1.363 2.338-1.95 3.588-1.236 2.531-2.224 5.177-2.95 7.9l-.18.705c-.175.707-.33 1.42-.47 2.132-.464 2.175-.765 4.38-.9 6.6v2.5c.027 1.983.185 3.963.475 5.925.112.75.25 1.487.4 2.225.372 1.82.856 3.615 1.45 5.375.238.675.488 1.35.75 2.013.686 1.67 1.47 3.298 2.35 4.874l.512.938c.176.313.376.6.563.9l-1.838 1.063-3.425 2.012L0 95.975v-2.5L14.6 85l3.475-1.875c-.864-1.575-1.636-3.198-2.313-4.862-.274-.663-.524-1.338-.762-2.013-.65-1.736-1.193-3.51-1.625-5.313-.162-.737-.3-1.474-.425-2.212-.335-1.934-.54-3.888-.612-5.85v-2.5c.036-2.19.228-4.375.575-6.538.15-.925.312-1.837.524-2.75.15-.675.3-1.35.488-2.025.512-1.886 1.138-3.74 1.875-5.55.462-1.137.962-2.237 1.5-3.325 4.044-8.013 10.356-14.66 18.15-19.112zm57.446 3.902c2.184-.198 4.385-.084 6.537.338v2.188l-.606-.116c-1.215-.212-2.447-.32-3.681-.322h-.888c-1.627.065-3.242.316-4.812.75-.784.198-1.556.44-2.313.725-.923.38-1.82.818-2.687 1.313-4.507 2.61-7.907 6.774-9.563 11.712-.313.953-.563 1.926-.75 2.913-.391 2.089-.471 4.224-.237 6.337.078.756.199 1.507.362 2.25.405 1.781 1.035 3.503 1.876 5.125.162.313.312.65.487.95.175.3.375.587.575.887l-1.838 1.063L72.5 62.75l-39.462 22.8c-.791-.441-1.63-.79-2.5-1.037L71.475 60.9l3.413-1.962c-.848-1.614-1.503-3.321-1.95-5.088-.175-.725-.326-1.462-.438-2.2-.314-2.048-.356-4.129-.125-6.188.103-.916.258-1.825.463-2.725.69-3.013 1.964-5.863 3.75-8.387 1.935-2.74 4.443-5.026 7.35-6.7.687-.362 1.275-.688 1.937-1 .738-.343 1.493-.647 2.263-.912 1.525-.52 3.1-.88 4.7-1.075z" transform="translate(-740 -401) translate(650 300) translate(90 101)"/>
                    <path d="M11.475 78.188c.25.674.513 1.337.787 2.05L0 87.325v-2.5zm-2.1-7.438c.15.725.313 1.467.488 2.225L0 78.663v-2.5zm-.938-8.125c.026.8.075 1.588.138 2.375L0 70v-2.5zm.526-8.962c-.125.875-.213 1.75-.313 2.675l-8.65 5v-2.5zM11.575 43.5c-.325 1-.7 2.013-1.012 3.075L0 52.675v-2.5zm6.938-12.675c-1.013 1.313-1.9 2.662-2.75 4.05L0 44.013v-2.5zM61.162 0L0 35.313v-2.45L56.913 0h4.25zm-15 0L0 26.65V24.2L41.913 0h4.25zM100 9.713v2.5l-13.175 7.612c-.663-.45-1.325-.887-2-1.363L100 9.712zM31.162 0L0 17.988v-2.45L26.913 0h4.25zM100 1.063v2.5L79.3 15.537c-.862-.362-1.675-.712-2.5-1.037L100 1.062zM91.162 0L69.837 12.313c-1.087-.238-2.087-.463-3.137-.638L86.912 0h4.25zm-15 0L57.125 10.988c-1.625.037-3.25.162-4.875.362L71.912 0h4.25zm-60 0L0 9.325v-2.45L11.912 0h4.25z" transform="translate(-740 -401) translate(650 300) translate(90 101)"/>
                </g>
            </g>
        </g>
    </g>
</svg>
